<?xml version="1.0" encoding="utf-8"?>
<!-- Generator: Adobe Illustrator 19.0.0, SVG Export Plug-In . SVG Version: 6.00 Build 0)  -->
<!DOCTYPE svg PUBLIC "-//W3C//DTD SVG 1.1//EN" "http://www.w3.org/Graphics/SVG/1.1/DTD/svg11.dtd">
<svg version="1.1" id="Layer_1" xmlns="http://www.w3.org/2000/svg" xmlns:xlink="http://www.w3.org/1999/xlink" x="0px" y="0px"
	 viewBox="0 0 120 120" enable-background="new 0 0 120 120" xml:space="preserve">
<g id="XMLID_1_" opacity="0.25">
	<path id="XMLID_19_" fill="none" stroke="#000000" stroke-width="2" stroke-miterlimit="10" d="M75.667,103.231H16.383
		c-2.408,0-4.36-1.952-4.36-4.36V12.942c0-2.408,1.952-4.36,4.36-4.36h55.642c2.408,0,4.36,1.952,4.36,4.36v28.53"/>
	<polyline id="XMLID_18_" fill="none" stroke="#000000" stroke-miterlimit="10" points="73.182,93.766 15.809,93.766 15.809,18.047 
		72.598,18.047 72.598,42.667 	"/>
	<circle id="XMLID_17_" fill="none" stroke="#000000" stroke-miterlimit="10" cx="44.204" cy="14.103" r="0.789"/>
	<circle id="XMLID_16_" fill="none" stroke="#000000" stroke-miterlimit="10" cx="44.204" cy="98.341" r="2.366"/>
	<polyline id="XMLID_15_" fill="none" stroke="#000000" stroke-width="2" stroke-miterlimit="10" points="58.401,24.672 
		65.657,24.672 65.657,31.929 	"/>
	
		<line id="XMLID_14_" fill="none" stroke="#000000" stroke-miterlimit="10" stroke-dasharray="3" x1="22.5" y1="46" x2="22.5" y2="68"/>
	
		<line id="XMLID_13_" fill="none" stroke="#000000" stroke-miterlimit="10" stroke-dasharray="3" x1="31.5" y1="37" x2="31.5" y2="76"/>
	
		<line id="XMLID_12_" fill="none" stroke="#000000" stroke-miterlimit="10" stroke-dasharray="3" x1="41.5" y1="46" x2="41.5" y2="70"/>
	
		<line id="XMLID_11_" fill="none" stroke="#000000" stroke-miterlimit="10" stroke-dasharray="3" x1="50.5" y1="37" x2="50.5" y2="58"/>
	
		<line id="XMLID_10_" fill="none" stroke="#000000" stroke-miterlimit="10" stroke-dasharray="3" x1="60.5" y1="30" x2="60.5" y2="45"/>
	<polyline id="XMLID_9_" fill="none" stroke="#000000" stroke-width="2" stroke-miterlimit="10" points="15.809,51.174 
		32.372,36.977 41.404,45.219 65.855,24.554 	"/>
	<g id="XMLID_2_">
		<path id="XMLID_8_" fill="none" stroke="#000000" stroke-width="2" stroke-miterlimit="10" d="M89.414,107.379
			c0,2.231-2.566,4.039-5.731,4.039s-5.731-1.808-5.731-4.039"/>
		<path id="XMLID_7_" fill="none" stroke="#000000" stroke-width="2" stroke-miterlimit="10" d="M91.023,101.588v2.294
			c0,1.931-1.566,3.497-3.497,3.497h-7.722c-1.931,0-3.497-1.566-3.497-3.497v-2.294"/>
		<path id="XMLID_6_" fill="none" stroke="#000000" stroke-width="2" stroke-miterlimit="10" d="M93.396,94.509v3.035
			c0,2.554-2.071,4.625-4.625,4.625H78.558c-2.554,0-4.625-2.071-4.625-4.625v-3.035"/>
		<path id="XMLID_5_" fill="none" stroke="#000000" stroke-width="2" stroke-miterlimit="10" d="M107.977,65.171
			c0-13.79-11.402-24.909-25.309-24.391c-11.675,0.435-21.507,9.364-23.15,20.931c-1.413,9.953,3.403,18.946,10.901,23.885
			c1.283,0.845,2.037,2.293,2.037,3.828l0,1.869c0,2.087,1.385,3.921,3.396,4.478c1.917,0.532,4.548,1.026,7.813,1.026
			c3.348,0,5.981-0.52,7.91-1.067c1.924-0.545,3.234-2.329,3.234-4.33v-1.977c0-1.532,0.748-2.98,2.027-3.822
			C103.457,81.244,107.977,73.724,107.977,65.171z"/>
		<path id="XMLID_4_" fill="none" stroke="#000000" stroke-miterlimit="10" d="M91.634,95.772
			c-5.492-21.351-1.124-27.646,3.267-25.848c4.209,1.724,1.261,9.892-5.089,7.703c-11.524-3.973-11.074-15.411-6.145-15.411
			c4.929,0,5.379,11.438-6.145,15.411c-6.351,2.189-9.298-5.979-5.089-7.703c4.391-1.799,8.759,4.496,3.267,25.848"/>
		<path id="XMLID_3_" fill="none" stroke="#000000" stroke-miterlimit="10" d="M83.633,44.997c11.017,0,19.947,8.931,19.947,19.947"
			/>
	</g>
</g>
</svg>
